<?xml version="1.0" encoding="UTF-8" standalone="no"?>
<!-- Creator: CorelDRAW -->
<svg xmlns:dc="http://purl.org/dc/elements/1.1/" xmlns:cc="http://creativecommons.org/ns#" xmlns:rdf="http://www.w3.org/1999/02/22-rdf-syntax-ns#" xmlns:svg="http://www.w3.org/2000/svg" xmlns="http://www.w3.org/2000/svg" xmlns:sodipodi="http://sodipodi.sourceforge.net/DTD/sodipodi-0.dtd" xmlns:inkscape="http://www.inkscape.org/namespaces/inkscape" xml:space="preserve" width="210mm" height="297mm" style="shape-rendering:geometricPrecision; text-rendering:geometricPrecision; image-rendering:optimizeQuality; fill-rule:evenodd; clip-rule:evenodd" viewBox="0 0 210 297" id="svg4630" sodipodi:version="0.32" inkscape:version="0.48.1 " sodipodi:docname="pauk.svg" inkscape:output_extension="org.inkscape.output.svg.inkscape" version="1.1"><sodipodi:namedview inkscape:window-height="1028" inkscape:window-width="1600" inkscape:pageshadow="2" inkscape:pageopacity="0.0" guidetolerance="10.0" gridtolerance="10.0" objecttolerance="10.0" borderopacity="1.0" bordercolor="#666666" pagecolor="#ffffff" id="base" showgrid="false" inkscape:zoom="1.7560494" inkscape:cx="372.04724" inkscape:cy="526.18109" inkscape:window-x="-8" inkscape:window-y="-8" inkscape:current-layer="svg4630" inkscape:window-maximized="0"/>
 <defs id="defs4632"><inkscape:perspective sodipodi:type="inkscape:persp3d" inkscape:vp_x="0 : 526.18109 : 1" inkscape:vp_y="0 : 1000 : 0" inkscape:vp_z="744.09448 : 526.18109 : 1" inkscape:persp3d-origin="372.04724 : 350.78739 : 1" id="perspective4660"/>
  <style type="text/css" id="style4634">
   
    .str0 {stroke:#1F1A17;stroke-width:0.2}
    .fil0 {fill:none}
    .fil1 {fill:#1F1A17}
   
  </style>
 
  <metadata id="CorelCorpID_0Corel-Layer"/>
  
 
   
   
   
   
   
   
   
   
   
   
   
   
   
   
   
   
   
   
  </defs>
 <polyline id="_47890752" class="fil0 str0" points="71.8662,109.506 82.2346,122.579 87.5315,129.454 93.1665,135.99 97.4491,142.527 " style="fill:none;stroke:#1f1a17;stroke-width:0.2"/><polyline id="_49173816" class="fil0 str0" points="130.132,105.787 125.624,111.534 120.215,119.874 115.03,127.876 111.537,134.187 107.141,141.963 105.084,145.46 " style="fill:none;stroke:#1f1a17;stroke-width:0.2"/><polyline id="_49174128" class="fil0 str0" points="146.924,127.876 136.331,131.482 130.358,135.089 123.708,138.808 116.94,141.981 " style="fill:none;stroke:#1f1a17;stroke-width:0.2"/><polyline id="_48693232" class="fil0 str0" points="153.461,159.657 146.474,158.08 136.443,154.699 128.554,153.121 119.974,151.583 " style="fill:none;stroke:#1f1a17;stroke-width:0.2"/><polyline id="_48678664" class="fil0 str0" points="139.486,179.943 130.696,174.759 124.723,170.251 118.186,165.18 112.213,159.883 106.803,154.473 " style="fill:none;stroke:#1f1a17;stroke-width:0.2"/><polyline id="_48183536" class="fil0 str0" points="114.241,197.186 112.213,190.762 109.17,181.408 106.352,173.294 103.986,165.518 102.354,158.803 " style="fill:none;stroke:#1f1a17;stroke-width:0.2"/><polyline id="_48910392" class="fil0 str0" points="84.3759,197.412 86.7426,191.664 89.5601,181.972 93.0538,172.843 95.5332,165.405 97.1743,159.197 " style="fill:none;stroke:#1f1a17;stroke-width:0.2"/><polyline id="_48744888" class="fil0 str0" points="62.0613,180.169 70.5138,174.308 76.7123,169.462 82.3473,164.503 87.2655,159.76 92.0395,154.924 94.1052,153.844 " style="fill:none;stroke:#1f1a17;stroke-width:0.2"/><polyline id="_49306392" class="fil0 str0" points="48.5373,151.092 55.2993,151.205 65.4423,151.543 73.6694,151.43 81.6711,151.318 91.3191,150.02 " style="fill:none;stroke:#1f1a17;stroke-width:0.2"/><polyline id="_48910488" class="fil0 str0" points="57.666,124.72 65.1042,132.609 72.7678,136.779 79.3044,140.16 86.0664,143.316 92.7157,145.457 " style="fill:none;stroke:#1f1a17;stroke-width:0.2"/><polyline id="_49107968" class="fil0 str0" points="100.492,98.4612 101.055,105.336 101.619,114.915 102.295,123.931 102.746,132.271 102.746,140.386 103.03,144.334 " style="fill:none;stroke:#1f1a17;stroke-width:0.2"/><path id="_50624584" class="fil0 str0" d="M 71.8662,109.506 C 71.8662,109.506 77.7508,110.2725 83.606,109.4843 C 89.4612,108.6961 93.8526,104.1358 95.1475,103.235 C 96.4424,102.3342 100.8338,98.3932 100.8338,98.3932 C 100.8338,98.3932 106.9705,103.5728 110.067,104.9803 C 113.1635,106.3878 113.1635,106.613 118.0053,106.8382 C 122.8471,107.0634 124.9302,106.7819 126.5629,106.6693 C 128.1956,106.5567 130.1321,105.7869 130.1321,105.7869 C 130.1321,105.7869 132.8685,114.8328 134.0508,117.1411 C 135.2331,119.4494 137.2599,122.2644 139.6808,124.066 C 142.1017,125.8676 146.9244,127.8761 146.9244,127.8761 C 146.9244,127.8761 143.6561,134.5254 144.1069,138.808 C 144.5577,143.0906 145.3466,146.9224 146.8117,150.078 C 148.2768,153.2336 152.7933,159.5067 152.7933,159.5067 C 152.7933,159.5067 147.0371,165.2925 144.6704,166.5322 C 142.3037,167.7719 141.4021,170.8148 139.937,174.1958 C 138.4719,177.5768 139.0037,179.659 139.0037,179.659 C 139.0037,179.659 130.3575,181.2959 126.6384,183.7753 C 122.9193,186.2547 118.9748,190.7627 117.6224,192.904 C 116.27,195.0453 114.2414,197.1866 114.2414,197.1866 C 114.2414,197.1866 107.9302,192.6786 102.2952,193.3548 C 96.6602,194.031 91.0252,194.8199 88.3204,195.8342 C 85.6156,196.8485 84.3759,197.412 84.3759,197.412 C 84.3759,197.412 79.7552,190.1992 77.8393,188.0579 C 75.9234,185.9166 74.4583,183.3245 70.1757,182.4229 C 65.8931,181.5213 62.5008,179.8642 62.5008,179.8642 C 62.5008,179.8642 61.3851,169.237 60.3708,165.6306 C 59.3565,162.0242 56.4263,158.0797 54.9612,156.84 C 53.4961,155.6003 48.5373,151.0923 48.5373,151.0923 C 48.5373,151.0923 54.5104,145.1192 55.9755,140.7239 C 57.4406,136.3286 58.4549,132.2714 58.4549,130.4682 C 58.4549,128.665 57.666,124.7205 57.666,124.7205 C 57.666,124.7205 62.9629,124.0443 66.0058,123.7062 C 69.0487,123.3681 71.19,120.6633 71.6408,118.6347 C 72.0916,116.6061 72.2049,109.9331 72.2049,109.9331" style="fill:none;stroke:#1f1a17;stroke-width:0.2"/><path id="_47348632" class="fil0 str0" d="M 76.0361,115.479 L 76.0004,114.7185 C 76.0004,114.7185 78.0647,116.4933 85.3902,115.1409 C 92.7157,113.7885 95.1951,110.4075 96.8856,109.0551 C 98.5761,107.7027 101.0104,104.7855 101.0104,104.7855 C 101.0104,104.7855 102.1825,107.1392 106.4651,110.4075 C 110.7477,113.6758 113.5652,115.8171 117.1716,114.8028 C 120.778,113.7885 125.6241,111.5345 125.6241,111.5345 C 125.6241,111.5345 124.0463,113.4504 126.3003,117.5076 C 128.5543,121.5648 131.0337,125.5093 133.2877,127.5379 C 135.5417,129.5665 137.579,131.0574 137.579,131.0574 C 137.579,131.0574 133.175,135.8777 135.2036,141.0619 C 137.2322,146.2461 139.2608,149.8525 139.937,150.6414 C 140.6132,151.4303 146.2482,157.178 146.2482,157.178 C 146.2482,157.178 139.1481,160.4463 136.8941,164.2781 C 134.6401,168.1099 131.3945,175.1714 131.3945,175.1714 C 131.3945,175.1714 123.1447,175.9989 119.5383,180.6196 C 115.9319,185.2403 112.1001,191.6642 112.1001,191.6642 C 112.1001,191.6642 103.7603,185.6911 100.7174,185.4657 C 97.6745,185.2403 94.7443,185.9165 92.1522,187.7197 C 89.5601,189.5229 86.7426,191.6642 86.7426,191.6642 C 86.7426,191.6642 87.4188,187.1562 83.6997,183.6625 C 79.9806,180.1688 76.825,178.3656 74.9091,176.7878 C 72.9932,175.21 70.5138,174.3084 70.5138,174.3084 C 70.5138,174.3084 71.8662,165.7432 70.063,163.2638 C 68.2598,160.7844 63.301,156.9526 62.2867,155.9383 C 61.2724,154.924 55.9755,150.8668 55.9755,150.8668 C 55.9755,150.8668 60.2581,147.2604 62.9629,141.9635 C 65.6677,136.6666 65.1042,132.6094 65.1042,132.6094 C 65.1042,132.6094 69.0487,132.384 71.7535,129.7919 C 74.4583,127.1998 76.5996,123.2553 76.5996,120.6632 C 76.5996,118.0711 76.0361,115.479 76.0361,115.479 L 76.0361,115.479 z" style="fill:none;stroke:#1f1a17;stroke-width:0.2"/><path id="_48744448" class="fil0 str0" d="M 82.2346,122.579 C 82.2346,122.579 87.1934,123.9314 89.8982,123.0298 C 92.603,122.1282 97.8999,119.5361 98.4634,118.6345 C 99.0269,117.7329 101.619,114.9154 101.619,114.9154 C 101.619,114.9154 103.4222,118.2964 107.1413,119.7615 C 110.8604,121.2266 113.3398,121.3393 115.3684,121.0012 C 117.397,120.6631 120.778,119.6488 120.778,119.6488 C 120.778,119.6488 120.3272,126.0727 122.9193,128.6648 C 125.5114,131.2569 125.7368,131.7077 127.2019,132.8347 C 128.667,133.9617 130.9372,134.7387 130.9372,134.7387 C 130.9372,134.7387 128.3289,138.8078 128.7797,142.1888 C 129.2305,145.5698 128.3289,147.2603 130.8083,149.627 C 133.2877,151.9937 136.7176,155.6199 136.7176,155.6199 C 136.7176,155.6199 131.2591,157.8541 130.1321,159.6573 C 129.0051,161.4605 126.3406,165.0476 125.3987,167.5463 C 124.4568,170.045 125.1733,171.2654 125.1733,171.2654 C 125.1733,171.2654 118.8621,169.913 116.4954,172.0543 C 114.1287,174.1956 110.5223,177.3512 109.8461,178.8163 C 109.1699,180.2814 109.1699,181.4084 109.1699,181.4084 C 109.1699,181.4084 100.6047,177.5766 98.5761,177.9147 C 96.5475,178.2528 89.5601,181.9719 89.5601,181.9719 C 89.5601,181.9719 87.4188,175.2099 84.4886,173.0686 C 81.5584,170.9273 76.7123,169.4622 76.7123,169.4622 C 76.7123,169.4622 77.5012,165.6304 76.7123,162.3621 C 75.9234,159.0938 74.0075,157.0652 72.317,155.6001 C 70.6265,154.135 64.9915,150.8667 64.9915,150.8667 C 64.9915,150.8667 66.3439,150.3032 68.5979,148.6127 C 70.8519,146.9222 73.1059,143.992 73.1059,141.3999 C 73.1059,138.8078 73.1266,136.9648 73.1266,136.9648 C 73.1266,136.9648 77.3885,136.7792 79.3044,134.4125 C 81.2203,132.0458 81.7838,127.6505 82.0092,125.5092 C 82.2346,123.3679 82.2346,122.579 82.2346,122.579 L 82.2346,122.579 z" style="fill:none;stroke:#1f1a17;stroke-width:0.2"/><path id="_49174152" class="fil0 str0" d="M 102.295,123.931 C 102.295,123.931 103.7601,126.4104 106.9157,126.9739 C 110.0713,127.5374 111.4237,127.6501 112.2126,127.6501 C 113.0015,127.6501 115.2843,127.4831 115.2843,127.4831 C 115.2843,127.4831 116.0444,131.1438 116.946,133.0597 C 117.8476,134.9756 121.1159,136.7788 121.1159,136.7788 L 123.9757,138.6577 C 123.9757,138.6577 123.0318,142.6392 123.3699,145.7948 C 123.708,148.9504 124.835,149.852 126.1874,150.979 C 127.5398,152.106 128.5541,153.1203 128.5541,153.1203 C 128.5541,153.1203 122.6937,156.1632 121.454,158.5299 C 120.2143,160.8966 119.2,162.8125 119.2,162.8125 L 118.1857,165.1792 C 118.1857,165.1792 113.9031,163.6014 111.5364,166.1935 C 109.1697,168.7856 107.8173,170.5888 107.5919,171.265 C 107.3665,171.9412 106.5966,173.9976 106.5966,173.9976 C 106.5966,173.9976 102.1823,170.5888 99.5902,171.0396 C 96.9981,171.4904 92.7991,173.5078 92.7991,173.5078 C 92.7991,173.5078 94.406,170.138 89.1091,167.4332 C 83.8122,164.7284 82.3471,164.503 82.3471,164.503 C 82.3471,164.503 83.9249,162.3617 81.3328,158.3045 C 78.7407,154.2473 74.12,151.4234 74.12,151.4234 C 74.12,151.4234 75.9232,150.979 77.8391,146.9218 C 79.755,142.8646 79.3042,140.1598 79.3042,140.1598 C 79.3042,140.1598 81.7836,141.0614 85.0519,138.2439 C 88.3202,135.4264 87.5313,129.4533 87.5313,129.4533 C 87.5313,129.4533 88.4727,130.4895 93.6171,129.566 C 98.7615,128.6425 102.295,123.931 102.295,123.931 L 102.295,123.931 z" style="fill:none;stroke:#1f1a17;stroke-width:0.2"/><path id="_48744352" class="fil0 str0" d="M 102.728,131.928 C 102.728,131.928 104.7751,134.4124 106.8037,134.6378 C 108.8323,134.8632 111.7809,133.7465 111.7809,133.7465 C 111.7809,133.7465 111.199,136.3283 112.326,138.0188 C 113.453,139.7093 116.9406,141.9808 116.9406,141.9808 C 116.9406,141.9808 115.707,143.5411 115.8197,145.7951 C 115.9324,148.0491 119.007,151.2249 119.007,151.2249 C 119.007,151.2249 115.0463,153.2219 114.1292,155.6 C 113.2121,157.9781 112.2133,159.8826 112.2133,159.8826 C 112.2133,159.8826 109.791,159.6685 107.818,160.4461 C 105.845,161.2237 103.9862,165.5176 103.9862,165.5176 C 103.9862,165.5176 101.5068,163.489 99.0274,164.1652 C 96.548,164.8414 95.5337,165.4049 95.5337,165.4049 C 95.5337,165.4049 94.5194,162.7001 92.3781,161.6858 C 90.2368,160.6715 87.266,159.7599 87.266,159.7599 C 87.266,159.7599 88.8844,154.6984 87.3066,153.6841 C 85.7288,152.6698 82.7986,150.7539 82.7986,150.7539 C 82.7986,150.7539 83.2494,150.9793 85.1653,148.3872 C 87.0812,145.7951 86.4062,143.425 86.4062,143.425 C 86.4062,143.425 88.5463,143.9919 90.3495,141.8506 C 92.1527,139.7093 92.8077,135.5734 92.8077,135.5734 C 92.8077,135.5734 95.2989,136.6933 97.3369,135.9902 C 99.3749,135.2871 102.728,131.928 102.728,131.928 L 102.728,131.928 z" style="fill:none;stroke:#1f1a17;stroke-width:0.2"/><path id="_48745080" class="fil0 str0" d="M 92.6631,154.598 C 92.6631,154.598 93.1665,153.121 93.0538,152.3321 C 92.9411,151.5432 90.9125,149.4019 90.9125,149.4019 C 90.9125,149.4019 92.5183,146.8785 92.3799,146.0916 C 92.2415,145.3047 93.8526,146.2483 95.2601,145.4601 C 96.6676,144.6719 97.118,142.3636 97.118,142.3636 C 97.118,142.3636 97.118,142.4199 98.4692,142.5888 C 99.8204,142.7577 101.622,142.0258 102.5791,141.2376 C 103.5362,140.4494 102.746,140.3859 102.746,140.3859 C 102.746,140.3859 102.5228,140.8435 103.4236,141.5191 C 104.3244,142.1947 107.0253,142.1608 107.0253,142.1608 C 107.0253,142.1608 106.4638,142.3636 107.815,143.3207 C 109.1662,144.2778 111.0035,145.9264 111.0035,145.9264 C 111.0035,145.9264 110.6863,148.2188 110.7989,148.9507 C 110.9115,149.6826 110.8762,151.2053 110.8762,151.2053 C 110.8762,151.2053 108.7721,152.0472 108.4906,152.385 C 108.2091,152.7228 105.7882,153.2858 105.7882,153.2858 L 104.437,154.3555 C 104.437,154.3555 97.0054,155.2 96.4987,155.2 C 95.992,155.2 92.6631,154.598 92.6631,154.598 L 92.6631,154.598 z" style="fill:none;stroke:#1f1a17;stroke-width:0.2"/><path id="_26046080" class="fil1" d="M 85.7454,164.264 C 85.7454,164.264 85.9706,161.3927 86.1395,159.76 C 86.3084,158.1273 87.6033,155.7064 88.7293,154.2426 C 89.8553,152.7788 90.2494,150.8646 91.3191,150.0201 C 92.3888,149.1756 92.9518,148.3311 93.4585,148.3311 C 93.9652,148.3311 95.8794,148.3874 96.2735,148.3874 C 96.6676,148.3874 98.5818,148.4437 98.5818,148.4437 C 98.5818,148.4437 99.1448,147.7118 98.7507,147.7118 C 98.3566,147.7118 94.6408,147.4303 92.614,147.5429 C 90.5872,147.6555 88.3915,147.4866 87.7159,147.7118 C 87.0403,147.937 86.1958,147.7118 86.1958,147.7118 C 86.1958,147.7118 87.0403,146.6421 87.4344,146.5295 C 87.8285,146.4169 91.2065,146.0791 93.0644,146.0791 C 94.9223,146.0791 96.1609,146.0228 97.0054,146.1354 C 97.8499,146.248 99.1448,147.0362 99.7641,146.811 C 100.3834,146.5858 99.8204,146.4169 98.6944,145.9102 C 97.5684,145.4035 95.7105,144.8405 95.2038,143.8834 C 94.6971,142.9263 94.4719,142.1944 92.8392,141.1247 C 91.2065,140.055 90.362,138.7038 89.4049,137.9156 C 88.4478,137.1274 87.2655,136.3955 86.8714,136.1703 C 86.4773,135.9451 86.0832,135.6073 86.0832,135.6073 C 86.0832,135.6073 89.1797,136.2829 90.1368,137.0148 C 91.0939,137.7467 92.3325,139.3794 92.3325,139.3794 C 92.3325,139.3794 94.0778,140.2239 94.6971,140.7869 C 95.3164,141.3499 96.1609,141.744 96.4424,142.2507 C 96.7239,142.7574 97.0617,143.2641 97.5121,143.7708 C 97.9625,144.2775 99.0885,144.559 99.4826,144.6716 C 99.8767,144.7842 100.5523,145.4598 100.5523,145.4598 C 100.5523,145.4598 99.5952,143.5456 99.5952,140.4491 C 99.5952,137.3526 99.4826,135.6636 99.1448,133.6931 C 98.807,131.7226 99.37,130.484 98.8633,128.9639 C 98.3566,127.4438 98.3003,126.1489 97.9062,125.3044 C 97.5121,124.4599 96.9491,122.039 96.9491,122.039 L 96.9491,120.9693 C 96.9491,120.9693 97.118,121.7575 97.7373,122.7709 C 98.3566,123.7843 99.4263,126.4867 99.7641,127.2186 C 100.1019,127.9505 100.7775,132.3419 100.7775,132.9612 C 100.7775,133.5805 100.3834,137.6341 100.7212,138.5349 C 101.059,139.4357 101.6783,142.87 101.7346,143.2641 C 101.7909,143.6582 102.5228,144.7842 102.5228,144.7842 L 103.5362,143.8834 C 103.5362,143.8834 104.9437,142.4759 105.1689,143.1515 C 105.3941,143.8271 105,143.3767 104.5496,144.0523 C 104.0992,144.7279 104.3807,145.4035 104.3807,145.4035 L 105.7882,145.5161 C 105.7882,145.5161 105.563,144.4464 105.563,144.1649 C 105.563,143.8834 106.2386,143.1515 106.2386,143.6019 C 106.2386,144.0523 106.4638,144.9531 106.4638,145.4035 C 106.4638,145.8539 106.8016,146.1354 106.8016,146.1354 C 106.8016,146.1354 108.0402,144.7842 110.4048,144.1649 C 112.7694,143.5456 115.3592,140.7869 116.2037,140.1676 C 117.0482,139.5483 121.1018,137.8593 121.7774,137.6904 C 122.453,137.5215 124.4798,136.677 125.268,136.5644 C 126.0562,136.4518 128.5334,136.0014 128.5334,136.0014 C 128.5334,136.0014 127.0133,137.1837 126.4503,137.4089 C 125.8873,137.6341 120.5388,139.2105 119.8632,139.6609 C 119.1876,140.1113 115.5844,143.0952 115.2466,143.3767 C 114.9088,143.6582 111.3619,145.7976 110.7989,146.0228 C 110.2359,146.248 107.815,146.8673 107.815,147.2614 C 107.815,147.6555 108.2091,148.2748 108.6032,148.6126 C 108.9973,148.9504 109.9544,149.4008 110.9678,149.4008 C 111.9812,149.4008 114.2332,149.2319 115.9222,150.0201 C 117.6112,150.8083 121.2707,151.9343 122.0589,152.4973 C 122.8471,153.0603 123.5227,153.6233 123.5227,153.6233 C 123.5227,153.6233 122.2841,153.1166 121.327,152.7788 C 120.3699,152.441 117.6675,151.9343 117.1045,151.9343 C 116.5415,151.9343 112.882,151.4276 112.3753,151.4276 C 111.8686,151.4276 108.8847,150.8646 108.6032,150.5831 C 108.3217,150.3016 106.8579,149.4571 106.8579,149.4571 C 106.8579,149.4571 107.1394,149.5697 108.2654,151.315 C 109.3914,153.0603 109.9544,154.4678 109.9544,154.4678 C 109.9544,154.4678 112.1501,156.945 112.6005,157.3954 C 113.0509,157.8458 114.7399,159.3096 115.0214,160.2667 C 115.3029,161.2238 114.1769,160.6608 114.1769,160.6608 C 114.1769,160.6608 111.756,158.0147 111.5871,157.7332 C 111.4182,157.4517 109.3914,155.1997 109.1099,154.7493 C 108.8284,154.2989 107.5335,152.5536 107.5335,152.5536 L 106.5201,151.8217 C 106.5201,151.8217 106.8579,153.7922 107.252,154.9745 C 107.6461,156.1568 107.7024,159.0844 107.5898,159.8726 C 107.4772,160.6608 107.1394,164.3766 107.1394,164.6581 C 107.1394,164.9396 106.4638,167.3042 106.2949,167.7546 C 106.126,168.205 105.4504,170.1755 105.4504,170.1755 L 104.5496,168.8806 C 104.5496,168.8806 105,167.1353 105.1689,166.7975 C 105.3378,166.4597 105.563,164.827 105.563,164.4892 C 105.563,164.1514 105.563,162.4061 105.563,162.4061 L 106.126,160.0415 C 106.126,160.0415 105.9008,156.8324 105.8445,156.4946 C 105.7882,156.1568 104.8874,152.8351 104.8874,152.8351 C 104.8874,152.8351 104.5496,153.5107 104.437,154.3552 C 104.3244,155.1997 103.4799,158.634 102.3539,158.8029 C 101.2279,158.9718 98.5818,160.0415 97.1743,159.197 C 95.7668,158.3525 94.4156,157.6769 94.303,155.9879 C 94.1904,154.2989 93.8526,152.4973 94.1904,151.7091 C 94.5282,150.9209 94.7534,149.9075 94.7534,149.9075 C 94.7534,149.9075 93.6837,149.6823 93.4022,150.189 C 93.1207,150.6957 91.6569,152.6662 91.3191,153.1729 C 90.9813,153.6796 89.1234,155.9879 89.0671,156.4383 C 89.0108,156.8887 87.4907,159.2533 87.2655,159.76 C 87.0403,160.2667 86.1395,163.1943 86.1395,163.5321 C 86.1395,163.8699 85.7454,164.264 85.7454,164.264 L 85.7454,164.264 z" style="fill:#1f1a17"/>
<metadata><rdf:RDF><cc:Work><dc:format>image/svg+xml</dc:format><dc:type rdf:resource="http://purl.org/dc/dcmitype/StillImage"/><cc:license rdf:resource="http://creativecommons.org/licenses/publicdomain/"/><dc:publisher><cc:Agent rdf:about="http://openclipart.org/"><dc:title>Open Clip Art Library</dc:title></cc:Agent></dc:publisher><dc:title>Spider &amp; web</dc:title><dc:date>2011-06-15T17:54:28</dc:date><dc:description/><dc:source>http://openclipart.org/detail/145543/spider--web-by-clipartbuz</dc:source><dc:creator><cc:Agent><dc:title>clipartbuz</dc:title></cc:Agent></dc:creator><dc:subject><rdf:Bag><rdf:li>clip art</rdf:li><rdf:li>clipart</rdf:li><rdf:li>mreža</rdf:li><rdf:li>pauk</rdf:li><rdf:li>spider</rdf:li><rdf:li>web</rdf:li></rdf:Bag></dc:subject></cc:Work><cc:License rdf:about="http://creativecommons.org/licenses/publicdomain/"><cc:permits rdf:resource="http://creativecommons.org/ns#Reproduction"/><cc:permits rdf:resource="http://creativecommons.org/ns#Distribution"/><cc:permits rdf:resource="http://creativecommons.org/ns#DerivativeWorks"/></cc:License></rdf:RDF></metadata></svg>
